<?xml version="1.0" encoding="utf-8"?>
<!-- Generator: Adobe Illustrator 16.0.0, SVG Export Plug-In . SVG Version: 6.00 Build 0)  -->
<!DOCTYPE svg PUBLIC "-//W3C//DTD SVG 1.1//EN" "http://www.w3.org/Graphics/SVG/1.1/DTD/svg11.dtd">
<svg version="1.1" id="Layer_1" xmlns="http://www.w3.org/2000/svg" xmlns:xlink="http://www.w3.org/1999/xlink" x="0px" y="0px"
	 width="512px" height="512px" viewBox="0 0 512 512" enable-background="new 0 0 512 512" xml:space="preserve">
<circle fill="#619CB9" cx="256" cy="256" r="256"/>
<g>
	<path fill="#FFFFFF" d="M232.557,358.994c0.206,0,0.411-0.057,0.61-0.068l-50.405,75.958c-1.2,1.795-3.196,2.835-5.309,2.835
		c-0.373,0-0.755-0.016-1.133-0.084c-2.507-0.447-4.506-2.339-5.074-4.8l-9.41-39.915l-39.118,7.582
		c-2.528,0.481-5.087-0.58-6.521-2.725c-1.427-2.14-1.452-4.918,0-7.059l52.15-78.58l4.044-0.212l1.765,14.521l-38.929,58.639
		l30.182-5.836c0.413-0.089,0.814-0.108,1.228-0.108c2.91,0,5.494,1.968,6.184,4.904l7.455,31.52l41.267-62.179
		C224.26,356.889,228.16,358.994,232.557,358.994z"/>
	<path fill="#FFFFFF" d="M395.811,390.719l-52.145-78.586l-4.059-0.206l-1.762,14.521l38.93,58.639l-30.178-5.836
		c-3.358-0.653-6.634,1.447-7.416,4.796l-7.442,31.52l-41.274-62.179c-2.711,3.501-6.618,5.606-11.022,5.606
		c-0.206,0-0.399-0.057-0.605-0.068l50.41,75.958c1.185,1.795,3.214,2.848,5.299,2.848c0.376,0,0.77-0.013,1.126-0.097
		c2.512-0.447,4.514-2.339,5.09-4.8l9.414-39.915l39.112,7.562c2.525,0.502,5.091-0.56,6.522-2.704
		C397.242,395.638,397.242,392.859,395.811,390.719z"/>
	<path fill="#FFFFFF" d="M393.507,207.672l-15.052-11.34c-3.344-2.53-4.231-7.488-1.928-11.018l10.284-15.762
		c2.292-3.529,0.888-7.409-3.138-8.647l-18.049-5.465c-3.998-1.224-6.535-5.576-5.572-9.683l4.236-18.356
		c0.956-4.094-1.706-7.272-5.9-7.042l-18.821,1.016c-4.21,0.216-8.05-3.007-8.574-7.186l-2.242-18.715
		c-0.521-4.186-4.099-6.25-7.964-4.609l-17.335,7.367c-3.875,1.652-8.599-0.076-10.511-3.817l-8.538-16.792
		c-1.92-3.75-5.991-4.467-9.061-1.585l-13.755,12.885c-3.08,2.865-8.096,2.865-11.177,0l-13.766-12.891
		c-3.071-2.875-7.135-2.158-9.049,1.592l-8.541,16.792c-1.904,3.751-6.634,5.469-10.509,3.832l-17.321-7.381
		c-3.882-1.634-7.455,0.423-7.973,4.609l-2.25,18.715c-0.519,4.179-4.356,7.402-8.563,7.186l-18.818-1.016
		c-4.193-0.23-6.865,2.938-5.912,7.042l4.24,18.356c0.957,4.107-1.561,8.458-5.579,9.683l-18.051,5.473
		c-4.014,1.23-5.431,5.11-3.132,8.64l10.293,15.762c2.301,3.529,1.418,8.487-1.942,11.018l-15.055,11.34
		c-3.354,2.53-3.354,6.669,0,9.205l15.055,11.325c3.36,2.535,4.244,7.488,1.942,11.012l-10.293,15.792
		c-2.299,3.513-0.881,7.41,3.132,8.622l18.031,5.477c4.028,1.218,6.556,5.592,5.599,9.686l-4.24,18.353
		c-0.953,4.102,1.709,7.259,5.905,7.046l18.822-1.013c0.583-0.032,1.127,0.146,1.692,0.25c3.477,0.59,6.421,3.341,6.874,6.938
		l0.58,4.884l1.67,13.815c0.519,4.182,4.091,6.252,7.973,4.614l17.321-7.381c3.877-1.638,8.604,0.076,10.509,3.818l7.777,15.299
		l0.763,1.5c1.915,3.756,5.978,4.466,9.049,1.582l9.067-8.475l4.699-4.403c3.081-2.868,8.097-2.868,11.177,0l4.698,4.403
		l9.057,8.475c3.082,2.884,7.156,2.174,9.061-1.582l0.762-1.52l7.776-15.279c1.912-3.742,6.636-5.456,10.511-3.818l17.335,7.381
		c3.865,1.638,7.443-0.433,7.964-4.614l1.666-13.827l0.576-4.872c0.456-3.61,3.4-6.349,6.881-6.946
		c0.565-0.097,1.113-0.274,1.693-0.242l18.821,1.021c4.194,0.205,6.856-2.952,5.9-7.054l-4.236-18.353
		c-0.963-4.094,1.574-8.468,5.572-9.686l18.049-5.477c4.025-1.212,5.43-5.108,3.138-8.622l-10.284-15.792
		c-2.304-3.523-1.416-8.477,1.928-11.012l15.052-11.325C396.868,214.342,396.868,210.202,393.507,207.672z M256.007,311.705
		c-54.923,0-99.445-44.521-99.445-99.436c0-54.913,44.522-99.424,99.445-99.424c54.899,0,99.422,44.511,99.422,99.424
		C355.429,267.185,310.906,311.705,256.007,311.705z"/>
	<path fill="#FFFFFF" d="M346.514,212.269c-0.012,49.983-40.532,90.507-90.522,90.515c-49.975-0.008-90.497-40.532-90.497-90.515
		c0-49.99,40.522-90.501,90.497-90.501C305.981,121.768,346.502,162.279,346.514,212.269z M338.865,212.269
		c-0.104-45.759-37.107-82.773-82.874-82.859c-45.762,0.085-82.772,37.1-82.847,82.859c0.075,45.761,37.085,82.783,82.847,82.859
		C301.758,295.052,338.762,258.03,338.865,212.269z"/>
	<path fill="#FFFFFF" d="M248.537,176.627c-3.888,3.641-9.637,5.467-17.227,5.467h-2.502v12.822h21.262v64.391h17.836v-93.145
		h-14.625C253.131,170.288,251.545,173.774,248.537,176.627z"/>
</g>
</svg>
