<?xml version="1.0" encoding="utf-8"?>
<!-- Generator: Adobe Illustrator 16.0.0, SVG Export Plug-In . SVG Version: 6.00 Build 0)  -->
<!DOCTYPE svg PUBLIC "-//W3C//DTD SVG 1.1//EN" "http://www.w3.org/Graphics/SVG/1.1/DTD/svg11.dtd">
<svg version="1.1" id="Layer_1" xmlns="http://www.w3.org/2000/svg" xmlns:xlink="http://www.w3.org/1999/xlink" x="0px" y="0px"
	 width="512px" height="512px" viewBox="0 0 512 512" enable-background="new 0 0 512 512" xml:space="preserve">
<circle fill="#F68E56" cx="256" cy="256" r="256"/>
<g>
	<g>
		<polygon fill="#F7F7F7" points="381.698,286.896 329.445,80.173 107.647,136.237 182.364,431.827 404.353,375.716 		"/>
	</g>
	<g>
		<path fill="#B5B5B5" d="M189.131,164.912c0.592-1.065-9.628,25.582-11.365,28.713c-0.629,1.134-3.446,5.132-7.077,10.301
			l-2.112,3.007l-2.491-1.296c-8.397-4.368-19.599-10.195-19.599-10.195c2.923,0.188,14.573,2.185,22.104,3.388
			c-2.243,0.833-3.842,1.427-4.243,1.578"/>
	</g>
	<g>
		<path fill="#B5B5B5" d="M202.301,217.017c0.591-1.065-9.628,25.58-11.365,28.711c-0.629,1.133-3.446,5.131-7.078,10.3
			l-2.111,3.006l-2.491-1.295c-8.397-4.368-19.598-10.193-19.598-10.193c2.922,0.188,14.572,2.184,22.102,3.387
			c-2.242,0.832-3.841,1.427-4.243,1.577"/>
	</g>
	<g>
		<path fill="#B5B5B5" d="M214.537,265.424c0.591-1.064-9.63,25.579-11.366,28.71c-0.629,1.133-3.445,5.131-7.077,10.301
			l-2.112,3.006l-2.491-1.297c-8.397-4.365-19.598-10.191-19.598-10.191c2.922,0.186,14.573,2.186,22.102,3.385
			c-2.242,0.832-3.84,1.43-4.242,1.578"/>
	</g>
	<g>
		<path fill="#B5B5B5" d="M227.707,317.524c0.592-1.064-9.629,25.584-11.366,28.713c-0.628,1.135-3.445,5.131-7.077,10.301
			l-2.111,3.008l-2.493-1.299c-8.396-4.367-19.598-10.195-19.598-10.195c2.922,0.186,14.574,2.186,22.104,3.391
			c-2.243,0.834-3.842,1.428-4.245,1.576"/>
	</g>
	<g>
		<path fill="#B5B5B5" d="M200.832,193.767c39.915-10.09,79.824-20.178,119.737-30.266c3.098-0.783,1.883-5.589-1.215-4.806
			c-39.913,10.089-79.822,20.177-119.737,30.266C196.52,189.744,197.734,194.55,200.832,193.767L200.832,193.767z"/>
	</g>
	<g>
		<path fill="#B5B5B5" d="M214.002,245.869c39.915-10.09,79.824-20.178,119.737-30.266c3.098-0.783,1.883-5.589-1.215-4.806
			c-39.912,10.089-79.822,20.177-119.737,30.266C209.689,241.847,210.904,246.652,214.002,245.869L214.002,245.869z"/>
	</g>
	<g>
		<path fill="#B5B5B5" d="M226.238,294.274c39.914-10.09,79.823-20.178,119.736-30.267c3.098-0.783,1.884-5.587-1.214-4.804
			c-39.913,10.089-79.823,20.178-119.737,30.266C221.925,290.253,223.14,295.058,226.238,294.274L226.238,294.274z"/>
	</g>
	<g>
		<path fill="#B5B5B5" d="M239.408,346.378c39.914-10.09,79.824-20.178,119.736-30.266c3.098-0.783,1.884-5.59-1.215-4.807
			c-39.912,10.09-79.822,20.178-119.736,30.266C235.096,342.354,236.311,347.161,239.408,346.378L239.408,346.378z"/>
	</g>
</g>
</svg>
