<?xml version="1.0" encoding="utf-8"?>
<!-- Generator: Adobe Illustrator 16.0.0, SVG Export Plug-In . SVG Version: 6.00 Build 0)  -->
<!DOCTYPE svg PUBLIC "-//W3C//DTD SVG 1.1//EN" "http://www.w3.org/Graphics/SVG/1.1/DTD/svg11.dtd">
<svg version="1.1" id="Layer_1" xmlns="http://www.w3.org/2000/svg" xmlns:xlink="http://www.w3.org/1999/xlink" x="0px" y="0px"
	 width="512px" height="512px" viewBox="0 0 512 512" enable-background="new 0 0 512 512" xml:space="preserve">
<circle fill="#619CB9" cx="259" cy="256" r="256"/>
<g>
	<path fill="none" d="M349.366,296.787l-2.964,5.354l-18.965-10.497c-7.018,13.541-11.348,28.695-12.294,44.762h21.443v13.602
		h-21.429c0.978,16.051,5.334,31.188,12.371,44.709l18.873-10.445l2.964,5.355l-18.862,10.439
		c8.964,15.135,21.383,27.98,36.18,37.441l11.086-18.449l5.246,3.152l-11.084,18.446c14.387,8.126,30.748,13.16,48.188,14.205
		v-21.323h13.601v21.323c17.439-1.045,33.801-6.079,48.188-14.205l-11.084-18.446l5.246-3.152l11.086,18.449
		c14.797-9.461,27.216-22.307,36.179-37.441l-18.861-10.439l2.963-5.355l18.873,10.445c7.038-13.521,11.395-28.658,12.372-44.709
		h-21.429v-13.602h21.443c-0.946-16.066-5.277-31.221-12.294-44.762l-18.966,10.497l-2.963-5.354l18.963-10.496
		c-8.951-15.176-21.372-28.061-36.182-37.55l-11.185,18.613l-5.246-3.152l11.187-18.616c-14.412-8.16-30.81-13.214-48.29-14.262
		v21.55h-13.601v-21.55c-17.48,1.047-33.879,6.102-48.29,14.262l11.187,18.616l-5.246,3.152l-11.186-18.613
		c-14.809,9.489-27.229,22.374-36.18,37.55L349.366,296.787z M424.199,337.771v-71.637h5.44v71.637
		c1.389,0.451,2.624,1.236,3.614,2.262h55.549v9.975h-53.964c-1.431,2.935-4.435,4.962-7.919,4.962
		c-4.869,0-8.816-3.946-8.816-8.815C418.104,342.236,420.662,338.919,424.199,337.771z"/>
</g>
<path fill="#FFFFFF" d="M269.734,322.411c-0.51-3.633-1.159-8.252-1.922-13.662c20.249-2.945,102.925-14.862,120.629-15.706
	c0,0-13.202-151.581-147.608-172.58c-1.875-12.521-3.161-20.646-3.501-21.841c-1.888-6.609-7.469-7.636-7.678,1.417
	c-8.669,3.423-29.301,13.031-30.819,27.457c-1.926,18.288-40.425,16.363-40.425,16.363s27.912,17.325,43.311,7.7
	c11.056-6.91,25.047-13.304,32.085-16.374c0.644,4.876,1.343,10.126,2.09,15.685C194.463,173.915,126.668,326.73,132.423,326.73
	c5.056,0,101.582-13.279,125.543-16.586c0.757,5.372,1.409,9.998,1.938,13.746c-67.272,10.169-133.257,21.128-133.257,21.128
	l23.619,31.764l202.68-9.338c12.372-15.538,40.56-50.808,48.008-59.003C405.712,303.207,338.703,312.094,269.734,322.411z
	 M267.018,303.126c-5.802-41.142-16.608-117.483-23.484-164.406C257.488,177.404,285.362,265.077,267.018,303.126z M230.159,106.296
	c0.521,4.652,1.415,11.793,2.573,20.707C229.83,122.428,227.412,115.447,230.159,106.296z M236.185,153.019
	c6.132,45.544,15.134,109.873,20.559,148.435C229.684,261.625,235.038,168.955,236.185,153.019z"/>
</svg>
