<?xml version="1.0" encoding="utf-8"?>
<!-- Generator: Adobe Illustrator 16.0.0, SVG Export Plug-In . SVG Version: 6.00 Build 0)  -->
<!DOCTYPE svg PUBLIC "-//W3C//DTD SVG 1.1//EN" "http://www.w3.org/Graphics/SVG/1.1/DTD/svg11.dtd">
<svg version="1.1" id="Layer_1" xmlns="http://www.w3.org/2000/svg" xmlns:xlink="http://www.w3.org/1999/xlink" x="0px" y="0px"
	 width="512px" height="512px" viewBox="0 0 512 512" enable-background="new 0 0 512 512" xml:space="preserve">
<circle fill="#619CB9" cx="256" cy="256" r="256"/>
<g>
	<path fill="#FFEEEE" d="M387.403,205.142c-11.073-7.475-22.321-15.511-33.199-23.283l-2.381-1.702
		c-12.667-9.047-24.116-17.173-35.979-25.026c-13.709-9.075-25.88-16.347-37.204-22.231c-13.929-7.241-26.84-12.543-39.47-16.209
		c-14.824-4.309-28.873-6.268-42.938-5.986c-1.07,0.021-2.083,0.305-2.984,0.772l-6.165-1.651l-72.347,270.003l10.549,2.828
		l28.118-104.94c0.613,0.168,1.252,0.26,1.9,0.244c12.311-0.244,36.475,4.441,39.323,5.001c11.679,3.42,23.697,8.371,36.729,15.143
		c10.898,5.663,22.667,12.698,35.976,21.51c11.678,7.731,23.024,15.785,35.585,24.757l2.365,1.689
		c10.954,7.828,22.281,15.923,33.51,23.499c1.132,0.765,2.45,1.159,3.78,1.159c0.797,0,1.6-0.143,2.365-0.43
		c2.047-0.765,3.598-2.47,4.163-4.581l41.052-153.213C390.899,209.71,389.795,206.755,387.403,205.142z M373.362,249.048
		c-11.947-8.062-23.833-16.591-35.73-25.089l-10.263,38.304c11.896,8.496,23.783,17.025,35.729,25.087l-10.262,38.305
		c-11.945-8.064-23.835-16.591-35.729-25.088l-10.265,38.302c-11.898-8.498-23.805-16.964-35.78-24.892l10.263-38.304
		c-12.103-8.011-24.277-15.468-36.591-21.871l-10.265,38.304c-12.575-6.535-25.297-11.957-38.238-15.718l10.262-38.303
		c-13.378-3.888-26.993-5.994-40.918-5.717l10.263-38.304c13.925-0.277,27.539,1.83,40.918,5.719l10.264-38.304
		c-13.38-3.888-26.993-5.994-40.917-5.719l10.262-38.302c13.926-0.274,27.54,1.832,40.918,5.719l-10.263,38.302
		c12.942,3.76,25.663,9.182,38.239,15.719l10.264-38.304c12.314,6.398,24.489,13.86,36.591,21.868l-10.262,38.307
		c11.976,7.927,23.88,16.393,35.779,24.889l10.265-38.304c11.895,8.501,23.783,17.028,35.729,25.092L373.362,249.048z
		 M216.757,199.784l-10.263,38.302c12.941,3.76,25.664,9.187,38.241,15.717l10.263-38.301
		C242.422,208.969,229.697,203.542,216.757,199.784z M281.325,275.673c11.978,7.932,23.884,16.396,35.782,24.894l10.262-38.304
		c-11.898-8.499-23.803-16.962-35.781-24.892L281.325,275.673z M291.588,237.371l10.265-38.301
		c-12.102-8.013-24.277-15.473-36.593-21.871l-10.263,38.302C267.312,221.901,279.486,229.36,291.588,237.371z"/>
</g>
</svg>
