<?xml version="1.0" encoding="utf-8"?>
<!-- Generator: Adobe Illustrator 16.0.0, SVG Export Plug-In . SVG Version: 6.00 Build 0)  -->
<!DOCTYPE svg PUBLIC "-//W3C//DTD SVG 1.1//EN" "http://www.w3.org/Graphics/SVG/1.1/DTD/svg11.dtd">
<svg version="1.1" id="Layer_1" xmlns="http://www.w3.org/2000/svg" xmlns:xlink="http://www.w3.org/1999/xlink" x="0px" y="0px"
	 width="512px" height="512px" viewBox="0 0 512 512" enable-background="new 0 0 512 512" xml:space="preserve">
<circle fill="#F68E56" cx="259" cy="256" r="256"/>
<g>
	<g>
		<path fill="#FFFFFF" d="M424.725,248.239c5.328-9.391-7.958-22.922-10.794-6.414c-0.687,3.987,0.393,7.851,2.408,11.42
			C420.303,252.326,423.322,250.716,424.725,248.239z"/>
		<circle fill="#FFFFFF" cx="303.493" cy="114.485" r="33.27"/>
	</g>
	<g>
		<path fill="#FFFFFF" d="M266.111,226.889c-1.051-2.954-2.482-5.244-4.293-6.866c-1.812-1.622-4.055-2.433-6.725-2.433
			c-2.672,0-4.891,0.811-6.654,2.433c-1.766,1.622-3.197,3.912-4.293,6.866c-1.098,2.958-1.885,6.464-2.36,10.518
			c-0.479,4.057-0.716,8.564-0.716,13.522c0,4.962,0.236,9.494,0.716,13.595c0.476,4.101,1.263,7.632,2.36,10.587
			c1.096,2.958,2.527,5.249,4.293,6.867c1.763,1.625,3.982,2.436,6.654,2.436c2.67,0,4.912-0.811,6.725-2.436
			c1.811-1.618,3.242-3.909,4.293-6.867c1.049-2.955,1.811-6.486,2.289-10.587c0.477-4.101,0.717-8.633,0.717-13.595
			c0-4.958-0.24-9.466-0.717-13.522C267.922,233.353,267.16,229.847,266.111,226.889z"/>
		<path fill="#FFFFFF" d="M419.366,257.647c5.171-2.501,9.836-6.215,13.455-11.604c18.892-28.124-16.192-26.717-25.638-14.062
			c-3.974,5.324-4.078,14.129-0.776,22.233c-3.711-0.006-7.683-0.321-11.663-0.892c0.956-20.968-7.271-43.693-31.961-64.834
			c-67.75-58.009-167.436-27.724-167.436-27.724c-10.646-16.636-31.939-19.194-31.939-19.194c-9.679,13.648,0,38.388,0,38.388
			c-28.218,23.987-30.971,63.774-30.971,63.774c-7.744-1.912-25.164,7.03-25.164,7.03c-3.873,11.091,0,36.683,0,36.683l37.219,8.531
			C151.608,308.962,161,318.849,173,326.259V367h44v-24.152c32,6.198,69,1.934,96-4.034V367h44v-44.673
			c16-11.835,32.961-34.22,37.307-60.238c5.275,0.221,10.582-0.072,15.958-1.262c5.688,8.065,15.184,13.876,28.181,11.934
			C438.445,272.761,426.629,266.563,419.366,257.647z M281.351,289.35c-6.345,8.921-15.097,13.379-26.257,13.379
			c-11.162,0-19.914-4.458-26.257-13.379c-6.345-8.918-9.516-21.727-9.516-38.421c0-8.298,0.834-15.645,2.504-22.036
			c1.668-6.389,4.079-11.78,7.227-16.169c3.148-4.386,6.916-7.726,11.305-10.015c4.386-2.29,9.3-3.435,14.738-3.435
			c11.16,0,19.912,4.461,26.257,13.379c6.342,8.92,9.515,21.677,9.515,38.275C290.865,267.623,287.692,280.432,281.351,289.35z
			 M413.931,241.825c2.836-16.508,16.122-2.977,10.794,6.414c-1.402,2.477-4.422,4.087-8.386,5.006
			C414.323,249.676,413.244,245.812,413.931,241.825z"/>
	</g>
</g>
</svg>
