<?xml version="1.0" encoding="utf-8"?>
<!-- Generator: Adobe Illustrator 16.0.0, SVG Export Plug-In . SVG Version: 6.00 Build 0)  -->
<!DOCTYPE svg PUBLIC "-//W3C//DTD SVG 1.1//EN" "http://www.w3.org/Graphics/SVG/1.1/DTD/svg11.dtd">
<svg version="1.1" id="Layer_1" xmlns="http://www.w3.org/2000/svg" xmlns:xlink="http://www.w3.org/1999/xlink" x="0px" y="0px"
	 width="512px" height="512px" viewBox="0 0 512 512" enable-background="new 0 0 512 512" xml:space="preserve">
<circle fill="#619CB9" cx="259" cy="256" r="256"/>
<g>
	<path fill="none" d="M349.366,296.787l-2.964,5.354l-18.965-10.497c-7.018,13.541-11.348,28.695-12.294,44.762h21.443v13.602
		h-21.429c0.978,16.051,5.334,31.188,12.371,44.709l18.873-10.445l2.964,5.355l-18.862,10.439
		c8.964,15.135,21.383,27.98,36.18,37.441l11.086-18.449l5.246,3.152l-11.084,18.446c14.387,8.126,30.748,13.16,48.188,14.205
		v-21.323h13.601v21.323c17.439-1.045,33.801-6.079,48.188-14.205l-11.084-18.446l5.246-3.152l11.086,18.449
		c14.797-9.461,27.216-22.307,36.179-37.441l-18.861-10.439l2.963-5.355l18.873,10.445c7.038-13.521,11.395-28.658,12.372-44.709
		h-21.429v-13.602h21.443c-0.946-16.066-5.277-31.221-12.294-44.762l-18.966,10.497l-2.963-5.354l18.963-10.496
		c-8.951-15.176-21.372-28.061-36.182-37.55l-11.185,18.613l-5.246-3.152l11.187-18.616c-14.412-8.16-30.81-13.214-48.29-14.262
		v21.55h-13.601v-21.55c-17.48,1.047-33.879,6.102-48.29,14.262l11.187,18.616l-5.246,3.152l-11.186-18.613
		c-14.809,9.489-27.229,22.374-36.18,37.55L349.366,296.787z M424.199,337.771v-71.637h5.44v71.637
		c1.389,0.451,2.624,1.236,3.614,2.262h55.549v9.975h-53.964c-1.431,2.935-4.435,4.962-7.919,4.962
		c-4.869,0-8.816-3.946-8.816-8.815C418.104,342.236,420.662,338.919,424.199,337.771z"/>
</g>
<g>
	<g>
		<path fill="#FFFFFF" d="M256.001,397.708c78.263,0,141.707-63.444,141.707-141.707s-63.444-141.709-141.707-141.709
			c-78.264,0-141.709,63.446-141.709,141.709S177.737,397.708,256.001,397.708z M189.828,152.521l12.268,20.414l5.753-3.458
			l-12.269-20.417c15.805-8.949,33.79-14.492,52.961-15.642v23.635h14.917v-23.635c19.171,1.149,37.155,6.693,52.962,15.642
			l-12.27,20.417l5.754,3.458l12.267-20.414c16.242,10.407,29.865,24.539,39.682,41.183l-20.797,11.511l3.249,5.873l20.801-11.512
			c7.695,14.851,12.445,31.471,13.483,49.092h-23.518v14.917h23.502c-1.072,17.604-5.851,34.205-13.569,49.034l-20.699-11.456
			l-3.249,5.874l20.686,11.449c-9.83,16.599-23.45,30.688-39.679,41.063l-12.158-20.233l-5.754,3.457l12.156,20.23
			c-15.778,8.912-33.723,14.434-52.849,15.579v-23.386h-14.917v23.386c-19.126-1.146-37.07-6.667-52.849-15.579l12.156-20.23
			l-5.753-3.457l-12.158,20.233c-16.229-10.376-29.849-24.465-39.68-41.063l20.687-11.449l-3.25-5.874l-20.699,11.456
			c-7.718-14.829-12.496-31.431-13.568-49.034h23.501v-14.917h-23.518c1.038-17.621,5.787-34.241,13.483-49.092l20.799,11.512
			l3.25-5.873l-20.796-11.511C159.964,177.059,173.587,162.928,189.828,152.521z"/>
	</g>
	<g>
		<path fill="#FFFFFF" d="M256.001,269.025c3.821,0,7.116-2.223,8.686-5.441h59.185v-10.939h-60.923
			c-1.087-1.125-2.441-1.986-3.964-2.48v-78.567h-5.967v78.567c-3.88,1.258-6.686,4.896-6.686,9.193
			C246.332,264.697,250.661,269.025,256.001,269.025z"/>
	</g>
</g>
</svg>
