<?xml version="1.0" encoding="utf-8"?>
<!-- Generator: Adobe Illustrator 16.0.0, SVG Export Plug-In . SVG Version: 6.00 Build 0)  -->
<!DOCTYPE svg PUBLIC "-//W3C//DTD SVG 1.1//EN" "http://www.w3.org/Graphics/SVG/1.1/DTD/svg11.dtd">
<svg version="1.1" id="Layer_1" xmlns="http://www.w3.org/2000/svg" xmlns:xlink="http://www.w3.org/1999/xlink" x="0px" y="0px"
	 width="512px" height="512px" viewBox="0 0 512 512" enable-background="new 0 0 512 512" xml:space="preserve">
<circle fill="#F68E56" cx="256" cy="256" r="256"/>
<g>
	<g>
		<path fill="#F4F4F4" d="M442.469,236.729c-4.022-5.633-12.471-12.875-13.677-21.324c-1.208-8.448-36.612-77.241-41.841-74.022
			c-5.23,3.218-6.84,6.838-14.484,13.276c-7.643,6.435-20.113,8.448-24.539,18.505c-4.425,10.058-9.656,16.495-12.874,22.931
			c-3.219,6.438-9.657,16.495-15.288,21.725c-5.633,5.231-13.68,10.461-14.281,10.461c-0.604,0-3.822,1.608-9.857-4.023
			c-6.034-5.632-25.344-14.482-26.552-16.896c-1.206-2.414-6.839-12.473-9.253-13.277c-2.413-0.804-12.07-2.01-16.092,2.817
			c-4.023,4.828-14.08,13.276-14.08,13.276h-8.852c0,0-24.541-35-29.369-33.793c-4.827,1.207-44.252,39.828-51.091,49.08
			c-6.84,9.253-14.885,16.495-20.518,22.529c-5.633,6.035-28.564,30.979-37.415,39.428c-8.85,8.448-43.449,44.655-43.449,44.655
			s16.091-5.231,18.505-7.646c2.413-2.414,2.415-2.414,6.438-7.24c4.022-4.828,11.264-7.646,11.264-7.646s4.023-2.814,0,1.61
			c-4.022,4.424-4.024,3.62-5.633,6.838c-1.609,3.22-4.828,6.036-4.828,10.06s0.805,9.654,0.805,11.665c0,2.015-1.208,6.843,0,7.644
			c1.207,0.807,10.459-6.836,13.678-6.836c3.218,0,6.035-5.23,6.437,0c0.402,5.229,3.219,4.021,0,10.057
			c-3.219,6.034-3.219,14.082-3.219,16.496c0,2.413,3.219,6.838,8.448,0c5.23-6.842,5.23-6.842,11.264-12.876
			c6.035-6.034,6.035-7.642,24.944-22.125c18.908-14.483,11.667-15.849,25.345-23.413c13.678-7.566,22.529-11.588,24.541-14.406
			c2.011-2.814-1.208-6.837-5.23-10.058c-4.022-3.218-6.036-2.412-8.046-2.412c-2.01,0-8.849-2.19-10.459-0.093
			c-1.609,2.104-6.84,8.941-6.438,4.115c0.403-4.828,3.22-8.047,11.265-12.473c8.045-4.425,11.264-6.033,13.678-8.449
			c2.414-2.414,9.655-2.814,8.448-8.447c-1.207-5.631-5.23-8.449-6.84-13.277c-1.608-4.827-4.424-7.642-4.022-10.458
			c0.402-2.817,6.036-4.425,8.046-9.655c2.011-5.231,1.878-6.839,2.95-13.276c1.073-6.438,7.913-20.115,7.913-20.115
			s-1.61-6.438,4.424-2.414c6.035,4.021,9.657,3.62,11.266,7.642c1.609,4.023,66.379,90.921,67.184,90.519
			c0.807-0.401-0.4,1.609-2.01-10.057c-1.611-11.67-1.609-14.887-2.414-20.117c-0.807-5.229-6.034-11.264-6.034-12.873
			c0-1.611-13.277,4.023-11.668-2.414c1.608-6.438,3.621-7.644,3.621-12.873c0-5.231-3.619-10.461-4.022-12.472
			c-0.404-2.011-2.415-6.838,0-9.252c2.413-2.414,7.642-4.024,7.642-4.024s12.473,11.667,23.737,28.162
			c11.266,16.494,84.082,96.15,84.082,96.15s-7.241-13.677-7.241-20.113c0-6.438,0.001-7.24,1.61-13.275s3.62-14.971,1.609-13.924
			c-2.014,1.049-11.669,0-11.669,0s0.805-0.963,0-4.182c-0.805-3.22-2.011-5.229-0.805-7.24c1.206-2.014,10.86-6.036,2.013-9.254
			c-8.853-3.218-17.702-6.034-16.093-10.058c1.608-4.024,12.068-4.024,12.068-4.024s8.047-0.805,10.862-6.438
			c2.814-5.633,4.021-5.632,4.828-10.056c0.805-4.427,4.425-5.634,2.814-10.461c-1.608-4.828-9.254-25.575-6.033-30.689
			c3.219-5.115,5.24-2.701,6.44-6.725c1.202-4.021,2.812-6.035,2.812-9.252c0-3.217-6.034-6.035,2.814-8.449
			c8.85-2.414,19.713-8.852,19.713-8.852l83.276,151.671c0,0,0-3.621,0-9.655"/>
	</g>
	<path fill="#F4F4F4" d="M267.529,320.52c0.828-7.028-35.142-64.498-42.583-76.073c-7.442-11.576-27.701-47.958-27.701-47.958
		s-2.48,5.788-2.48,7.028c0,1.24,2.067,6.616,2.067,7.855c0,1.24-1.24,0.827-2.067,8.269c-0.827,7.441,0,11.575,0,18.604
		c0,7.029,4.548,14.883,6.201,24.806c1.654,9.922,0.827,11.99,1.654,25.221c0.827,13.23,4.134,26.873,6.201,32.248
		c2.067,5.375,15.297,6.614,19.432,7.854c4.135,1.239,31.835,16.95,37.21,19.433c5.374,2.48,10.75,2.895,10.75,2.895V331.27
		L267.529,320.52z"/>
	<path fill="#F4F4F4" d="M274.146,248.58c0,0,9.922,15.298,12.402,19.432c2.479,4.135,6.614,10.749,6.614,16.951
		c0,6.203-4.548,17.365-5.374,14.059c-0.828-3.309-6.497-14.472-8.005-16.539c-1.505-2.066-3.571,0-3.571-8.89
		C276.213,264.705,274.146,248.58,274.146,248.58z"/>
	<path fill="#F4F4F4" d="M386.6,165.894l17.779,25.218c0,0,4.135,16.538,6.201,22.74s15.711,28.527,18.604,36.382
		c2.896,7.855,9.097,16.538,9.097,19.846c0,3.307-2.895,7.441-2.895,7.441s-1.241-1.24-11.576-9.51
		c-10.337-8.27-14.059-12.862-16.537-12.013c-2.48,0.851-3.722-0.437-13.645,0s-19.019,0.436-20.259-2.458
		s-18.605,8.268-7.028-9.096c11.577-17.365,12.403-16.951,13.646-25.633c1.239-8.682,2.065-13.229,2.065-18.604
		C382.053,194.833,386.6,165.894,386.6,165.894z"/>
</g>
</svg>
